<svg width="25" height="25" viewBox="0 0 25 25" fill="none" xmlns="http://www.w3.org/2000/svg">
<g id="vuesax/outline/category">
<g id="category">
<path id="Vector" d="M7.04395 10.75H5.04395C3.92302 10.75 3.12938 10.4433 2.615 9.92895C2.10062 9.41456 1.79395 8.62092 1.79395 7.5V5.5C1.79395 4.37908 2.10062 3.58544 2.615 3.07105C3.12938 2.55667 3.92302 2.25 5.04395 2.25H7.04395C8.16487 2.25 8.95851 2.55667 9.47289 3.07105C9.98727 3.58544 10.2939 4.37908 10.2939 5.5V7.5C10.2939 8.62092 9.98727 9.41456 9.47289 9.92895C8.95851 10.4433 8.16487 10.75 7.04395 10.75ZM5.04395 2.75C4.19748 2.75 3.47443 2.9274 2.97289 3.42895C2.47135 3.93049 2.29395 4.65353 2.29395 5.5V7.5C2.29395 8.34647 2.47135 9.06951 2.97289 9.57105C3.47443 10.0726 4.19748 10.25 5.04395 10.25H7.04395C7.89041 10.25 8.61346 10.0726 9.115 9.57105C9.61654 9.06951 9.79395 8.34647 9.79395 7.5V5.5C9.79395 4.65353 9.61654 3.93049 9.115 3.42895C8.61346 2.9274 7.89041 2.75 7.04395 2.75H5.04395Z" fill="#1A1A2A" stroke="#1A1A2A"/>
<path id="Vector_2" d="M19.0439 10.75H17.0439C15.923 10.75 15.1294 10.4433 14.615 9.92895C14.1006 9.41456 13.7939 8.62092 13.7939 7.5V5.5C13.7939 4.37908 14.1006 3.58544 14.615 3.07105C15.1294 2.55667 15.923 2.25 17.0439 2.25H19.0439C20.1649 2.25 20.9585 2.55667 21.4729 3.07105C21.9873 3.58544 22.2939 4.37908 22.2939 5.5V7.5C22.2939 8.62092 21.9873 9.41456 21.4729 9.92895C20.9585 10.4433 20.1649 10.75 19.0439 10.75ZM17.0439 2.75C16.1975 2.75 15.4744 2.9274 14.9729 3.42895C14.4713 3.93049 14.2939 4.65353 14.2939 5.5V7.5C14.2939 8.34647 14.4713 9.06951 14.9729 9.57105C15.4744 10.0726 16.1975 10.25 17.0439 10.25H19.0439C19.8904 10.25 20.6135 10.0726 21.115 9.57105C21.6165 9.06951 21.7939 8.34647 21.7939 7.5V5.5C21.7939 4.65353 21.6165 3.93049 21.115 3.42895C20.6135 2.9274 19.8904 2.75 19.0439 2.75H17.0439Z" fill="#1A1A2A" stroke="#1A1A2A"/>
<path id="Vector_3" d="M19.0439 22.75H17.0439C15.923 22.75 15.1294 22.4433 14.615 21.9289C14.1006 21.4146 13.7939 20.6209 13.7939 19.5V17.5C13.7939 16.3791 14.1006 15.5854 14.615 15.0711C15.1294 14.5567 15.923 14.25 17.0439 14.25H19.0439C20.1649 14.25 20.9585 14.5567 21.4729 15.0711C21.9873 15.5854 22.2939 16.3791 22.2939 17.5V19.5C22.2939 20.6209 21.9873 21.4146 21.4729 21.9289C20.9585 22.4433 20.1649 22.75 19.0439 22.75ZM17.0439 14.75C16.1975 14.75 15.4744 14.9274 14.9729 15.4289C14.4713 15.9305 14.2939 16.6535 14.2939 17.5V19.5C14.2939 20.3465 14.4713 21.0695 14.9729 21.5711C15.4744 22.0726 16.1975 22.25 17.0439 22.25H19.0439C19.8904 22.25 20.6135 22.0726 21.115 21.5711C21.6165 21.0695 21.7939 20.3465 21.7939 19.5V17.5C21.7939 16.6535 21.6165 15.9305 21.115 15.4289C20.6135 14.9274 19.8904 14.75 19.0439 14.75H17.0439Z" fill="#1A1A2A" stroke="#1A1A2A"/>
<path id="Vector_4" d="M7.04395 22.75H5.04395C3.92302 22.75 3.12938 22.4433 2.615 21.9289C2.10062 21.4146 1.79395 20.6209 1.79395 19.5V17.5C1.79395 16.3791 2.10062 15.5854 2.615 15.0711C3.12938 14.5567 3.92302 14.25 5.04395 14.25H7.04395C8.16487 14.25 8.95851 14.5567 9.47289 15.0711C9.98727 15.5854 10.2939 16.3791 10.2939 17.5V19.5C10.2939 20.6209 9.98727 21.4146 9.47289 21.9289C8.95851 22.4433 8.16487 22.75 7.04395 22.75ZM5.04395 14.75C4.19748 14.75 3.47443 14.9274 2.97289 15.4289C2.47135 15.9305 2.29395 16.6535 2.29395 17.5V19.5C2.29395 20.3465 2.47135 21.0695 2.97289 21.5711C3.47443 22.0726 4.19748 22.25 5.04395 22.25H7.04395C7.89041 22.25 8.61346 22.0726 9.115 21.5711C9.61654 21.0695 9.79395 20.3465 9.79395 19.5V17.5C9.79395 16.6535 9.61654 15.9305 9.115 15.4289C8.61346 14.9274 7.89041 14.75 7.04395 14.75H5.04395Z" fill="#1A1A2A" stroke="#1A1A2A"/>
</g>
</g>
</svg>
