<svg width="25" height="25" viewBox="0 0 25 25" fill="none" xmlns="http://www.w3.org/2000/svg">
<g id="vuesax/linear/people">
<g id="people">
<g id="Group">
<path id="Vector" d="M18.044 7.66C17.984 7.65 17.914 7.65 17.854 7.66C16.474 7.61 15.374 6.48 15.374 5.08C15.374 3.65 16.524 2.5 17.954 2.5C19.384 2.5 20.534 3.66 20.534 5.08C20.524 6.48 19.424 7.61 18.044 7.66Z" stroke="#1A1A2A" stroke-width="1.5" stroke-linecap="round" stroke-linejoin="round"/>
<path id="Vector_2" d="M17.0144 14.94C18.3844 15.17 19.8944 14.93 20.9544 14.22C22.3644 13.28 22.3644 11.74 20.9544 10.8C19.8844 10.09 18.3544 9.85 16.9844 10.09" stroke="#1A1A2A" stroke-width="1.5" stroke-linecap="round" stroke-linejoin="round"/>
</g>
<g id="Group_2">
<path id="Vector_3" d="M6.01442 7.66C6.07442 7.65 6.14441 7.65 6.20441 7.66C7.58441 7.61 8.68441 6.48 8.68441 5.08C8.68441 3.65 7.53442 2.5 6.10442 2.5C4.67442 2.5 3.52441 3.66 3.52441 5.08C3.53441 6.48 4.63442 7.61 6.01442 7.66Z" stroke="#1A1A2A" stroke-width="1.5" stroke-linecap="round" stroke-linejoin="round"/>
<path id="Vector_4" d="M7.04437 14.94C5.67437 15.17 4.16437 14.93 3.10438 14.22C1.69438 13.28 1.69438 11.74 3.10438 10.8C4.17438 10.09 5.70437 9.85 7.07437 10.09" stroke="#1A1A2A" stroke-width="1.5" stroke-linecap="round" stroke-linejoin="round"/>
</g>
<g id="Group_3">
<path id="Vector_5" d="M12.044 15.13C11.984 15.12 11.914 15.12 11.854 15.13C10.474 15.08 9.37402 13.95 9.37402 12.55C9.37402 11.12 10.524 9.97 11.954 9.97C13.384 9.97 14.534 11.13 14.534 12.55C14.524 13.95 13.424 15.09 12.044 15.13Z" stroke="#1A1A2A" stroke-width="1.5" stroke-linecap="round" stroke-linejoin="round"/>
<path id="Vector_6" d="M9.13367 18.28C7.72367 19.22 7.72367 20.76 9.13367 21.7C10.7337 22.77 13.3537 22.77 14.9537 21.7C16.3637 20.76 16.3637 19.22 14.9537 18.28C13.3637 17.22 10.7337 17.22 9.13367 18.28Z" stroke="#1A1A2A" stroke-width="1.5" stroke-linecap="round" stroke-linejoin="round"/>
</g>
</g>
</g>
</svg>
