<svg width="20" height="20" viewBox="0 0 20 20" fill="none" xmlns="http://www.w3.org/2000/svg">
<g id="vuesax/outline/search-normal">
<g id="search-normal">
<path id="Vector" d="M9.58366 18.1251C4.87533 18.1251 1.04199 14.2917 1.04199 9.58342C1.04199 4.87508 4.87533 1.04175 9.58366 1.04175C14.292 1.04175 18.1253 4.87508 18.1253 9.58342C18.1253 14.2917 14.292 18.1251 9.58366 18.1251ZM9.58366 2.29175C5.55866 2.29175 2.29199 5.56675 2.29199 9.58342C2.29199 13.6001 5.55866 16.8751 9.58366 16.8751C13.6087 16.8751 16.8753 13.6001 16.8753 9.58342C16.8753 5.56675 13.6087 2.29175 9.58366 2.29175Z" fill="#292D32"/>
<path id="Vector_2" d="M18.3335 18.4583C18.3158 18.4583 18.3003 18.4551 18.287 18.4497C18.2741 18.4445 18.2601 18.4361 18.2454 18.4214L16.5787 16.7547C16.5572 16.7332 16.5439 16.7025 16.5439 16.6666C16.5439 16.6308 16.5572 16.6 16.5787 16.5785C16.6003 16.557 16.631 16.5437 16.6669 16.5437C16.7027 16.5437 16.7334 16.557 16.755 16.5785L18.4216 18.2452C18.4432 18.2667 18.4564 18.2974 18.4564 18.3333C18.4564 18.3691 18.4432 18.3999 18.4216 18.4214C18.407 18.4361 18.3929 18.4445 18.3801 18.4497C18.3667 18.4551 18.3512 18.4583 18.3335 18.4583Z" fill="#A6A6AB" stroke="#A6A6AB"/>
</g>
</g>
</svg>
