<svg width="25" height="25" viewBox="0 0 25 25" fill="none" xmlns="http://www.w3.org/2000/svg">
<g id="vuesax/linear/setting">
<g id="setting">
<path id="Vector" d="M3.04395 9.61V15.38C3.04395 17.5 3.04395 17.5 5.04395 18.85L10.5439 22.03C11.3739 22.51 12.7239 22.51 13.5439 22.03L19.0439 18.85C21.0439 17.5 21.0439 17.5 21.0439 15.39V9.61C21.0439 7.5 21.0439 7.5 19.0439 6.15L13.5439 2.97C12.7239 2.49 11.3739 2.49 10.5439 2.97L5.04395 6.15C3.04395 7.5 3.04395 7.5 3.04395 9.61Z" stroke="#1A1A2A" stroke-width="1.5" stroke-linecap="round" stroke-linejoin="round"/>
<path id="Vector_2" d="M12.0439 15.5C13.7008 15.5 15.0439 14.1569 15.0439 12.5C15.0439 10.8431 13.7008 9.5 12.0439 9.5C10.3871 9.5 9.04395 10.8431 9.04395 12.5C9.04395 14.1569 10.3871 15.5 12.0439 15.5Z" stroke="#1A1A2A" stroke-width="1.5" stroke-linecap="round" stroke-linejoin="round"/>
</g>
</g>
</svg>
